<?xml version="1.0" standalone="no"?>
<!DOCTYPE svg PUBLIC "-//W3C//DTD SVG 20010904//EN"
 "http://www.w3.org/TR/2001/REC-SVG-20010904/DTD/svg10.dtd">
<svg version="1.0" xmlns="http://www.w3.org/2000/svg"
 width="700.000000pt" height="700.000000pt" viewBox="0 0 700.000000 700.000000"
 preserveAspectRatio="xMidYMid meet">
<metadata>
Created by potrace 1.14, written by Peter Selinger 2001-2017
</metadata>
<g transform="translate(0.000000,700.000000) scale(0.100000,-0.100000)"
fill="#000000" stroke="none">
<path d="M1239 6119 c-77 -11 -158 -57 -230 -128 -73 -73 -114 -148 -126 -232
-5 -30 -8 -1057 -8 -2284 1 -2475 -4 -2275 68 -2387 65 -102 168 -176 280
-202 40 -9 580 -12 2287 -11 1229 1 2251 5 2270 9 139 33 267 149 322 292 l22
59 1 2235 c1 1575 -2 2253 -10 2295 -27 150 -143 283 -293 338 -57 20 -58 20
-2298 21 -1232 1 -2261 -2 -2285 -5z m2960 -906 c13 -5 102 -88 198 -183 l174
-174 172 172 c172 171 214 202 274 202 71 -1 162 -74 182 -145 9 -35 9 -46 -5
-108 -4 -19 -63 -86 -180 -204 -96 -96 -174 -178 -174 -181 0 -4 75 -81 166
-172 91 -90 172 -176 179 -191 37 -70 23 -147 -37 -208 -48 -47 -93 -65 -151
-57 -23 3 -46 5 -51 5 -6 1 -92 82 -191 182 l-182 180 -172 -171 c-173 -172
-211 -200 -274 -200 -79 0 -174 82 -184 158 -12 91 -5 102 188 297 l179 181
-175 174 c-180 180 -199 207 -197 278 2 51 42 113 94 149 40 26 56 31 95 29
27 -2 59 -7 72 -13z m-1109 -457 c110 -59 129 -218 36 -299 -56 -47 -54 -47
-652 -47 -382 0 -573 4 -596 12 -155 51 -159 289 -6 341 25 9 193 12 609 12
538 -1 576 -2 609 -19z m-533 -1467 c30 -14 52 -35 70 -67 l27 -46 0 -253 0
-253 241 0 c132 0 256 -5 277 -10 46 -13 104 -70 114 -113 24 -97 -11 -182
-91 -225 -25 -13 -74 -16 -280 -18 -137 -1 -253 -3 -256 -3 -3 -1 -5 -101 -4
-223 1 -272 -5 -311 -51 -359 -42 -43 -85 -58 -150 -53 -61 5 -117 42 -144 94
-18 36 -20 58 -20 290 0 137 -3 251 -7 251 -5 1 -120 2 -258 3 -279 2 -290 4
-342 73 -25 32 -28 45 -28 108 0 63 3 76 29 109 53 70 78 76 359 76 l247 0 0
250 c0 138 0 253 1 258 1 14 43 77 58 87 75 51 137 58 208 24z m2633 -234
c148 -33 181 -240 52 -325 -36 -24 -57 -30 -101 -31 -31 0 -301 0 -599 -1
l-544 0 -46 24 c-62 32 -92 83 -92 158 0 97 55 162 151 178 56 10 1135 7 1179
-3z m35 -797 c94 -50 124 -161 69 -255 -19 -33 -38 -50 -71 -65 -43 -19 -68
-20 -617 -20 -315 0 -591 3 -613 7 -83 13 -138 92 -131 187 6 82 55 142 127
157 18 3 296 6 619 5 515 0 591 -2 617 -16z"/>
</g>
</svg>
